<svg xmlns="http://www.w3.org/2000/svg" version="1.1" viewBox="0 0 240 180"><title>Scientific Vector Studio editable asset</title><path id="flask-body" d="M95 25 L92 82 L45 144 Q40 153 51 157 Q120 167 189 157 Q201 153 194 143 L148 82 L145 25 Z" fill="#E2F4F7" fill-opacity="0.5" stroke="#4E91A5" stroke-width="3" stroke-linejoin="round"/><path id="flask-neck" d="M95 25 L92 82 M145 25 L148 82" fill="none" stroke="#4E91A5" stroke-width="3"/><path id="flask-liquid" d="M66 123 Q118 111 175 123 L193 146 Q198 153 187 156 Q120 164 53 156 Q43 153 48 146 Z" fill="#65C6A8" fill-opacity="0.8" stroke="#3AA184" stroke-width="2"/><ellipse id="flask-rim" cx="120" cy="25" rx="28" ry="7" fill="#F8FDFD" stroke="#4E91A5" stroke-width="3"/><path id="flask-highlight" d="M70 132 Q83 100 103 79" fill="none" stroke="#FFFFFF" stroke-width="7" stroke-linecap="round" opacity="0.7"/></svg>
