<svg xmlns="http://www.w3.org/2000/svg" version="1.1" viewBox="0 0 240 180"><title>Scientific Vector Studio editable asset</title><path id="well-plate-body" d="M30 61 L61 34 H198 L214 57 L183 145 H47 Z" fill="#E3F1F4" stroke="#4B7884" stroke-width="3"/><g id="well-plate-wells" fill="#7EB6C3" stroke="#416F7A" stroke-width="1"><ellipse id="well-plate-0-0" cx="61.0" cy="58.0" rx="3.6" ry="2.8"/><ellipse id="well-plate-0-1" cx="72.2" cy="58.0" rx="3.6" ry="2.8"/><ellipse id="well-plate-0-2" cx="83.4" cy="58.0" rx="3.6" ry="2.8"/><ellipse id="well-plate-0-3" cx="94.6" cy="58.0" rx="3.6" ry="2.8"/><ellipse id="well-plate-0-4" cx="105.8" cy="58.0" rx="3.6" ry="2.8"/><ellipse id="well-plate-0-5" cx="117.0" cy="58.0" rx="3.6" ry="2.8"/><ellipse id="well-plate-0-6" cx="128.2" cy="58.0" rx="3.6" ry="2.8"/><ellipse id="well-plate-0-7" cx="139.4" cy="58.0" rx="3.6" ry="2.8"/><ellipse id="well-plate-0-8" cx="150.6" cy="58.0" rx="3.6" ry="2.8"/><ellipse id="well-plate-0-9" cx="161.8" cy="58.0" rx="3.6" ry="2.8"/><ellipse id="well-plate-0-10" cx="173.0" cy="58.0" rx="3.6" ry="2.8"/><ellipse id="well-plate-0-11" cx="184.2" cy="58.0" rx="3.6" ry="2.8"/><ellipse id="well-plate-1-0" cx="61.0" cy="68.2" rx="3.6" ry="2.8"/><ellipse id="well-plate-1-1" cx="72.2" cy="68.2" rx="3.6" ry="2.8"/><ellipse id="well-plate-1-2" cx="83.4" cy="68.2" rx="3.6" ry="2.8"/><ellipse id="well-plate-1-3" cx="94.6" cy="68.2" rx="3.6" ry="2.8"/><ellipse id="well-plate-1-4" cx="105.8" cy="68.2" rx="3.6" ry="2.8"/><ellipse id="well-plate-1-5" cx="117.0" cy="68.2" rx="3.6" ry="2.8"/><ellipse id="well-plate-1-6" cx="128.2" cy="68.2" rx="3.6" ry="2.8"/><ellipse id="well-plate-1-7" cx="139.4" cy="68.2" rx="3.6" ry="2.8"/><ellipse id="well-plate-1-8" cx="150.6" cy="68.2" rx="3.6" ry="2.8"/><ellipse id="well-plate-1-9" cx="161.8" cy="68.2" rx="3.6" ry="2.8"/><ellipse id="well-plate-1-10" cx="173.0" cy="68.2" rx="3.6" ry="2.8"/><ellipse id="well-plate-1-11" cx="184.2" cy="68.2" rx="3.6" ry="2.8"/><ellipse id="well-plate-2-0" cx="61.0" cy="78.4" rx="3.6" ry="2.8"/><ellipse id="well-plate-2-1" cx="72.2" cy="78.4" rx="3.6" ry="2.8"/><ellipse id="well-plate-2-2" cx="83.4" cy="78.4" rx="3.6" ry="2.8"/><ellipse id="well-plate-2-3" cx="94.6" cy="78.4" rx="3.6" ry="2.8"/><ellipse id="well-plate-2-4" cx="105.8" cy="78.4" rx="3.6" ry="2.8"/><ellipse id="well-plate-2-5" cx="117.0" cy="78.4" rx="3.6" ry="2.8"/><ellipse id="well-plate-2-6" cx="128.2" cy="78.4" rx="3.6" ry="2.8"/><ellipse id="well-plate-2-7" cx="139.4" cy="78.4" rx="3.6" ry="2.8"/><ellipse id="well-plate-2-8" cx="150.6" cy="78.4" rx="3.6" ry="2.8"/><ellipse id="well-plate-2-9" cx="161.8" cy="78.4" rx="3.6" ry="2.8"/><ellipse id="well-plate-2-10" cx="173.0" cy="78.4" rx="3.6" ry="2.8"/><ellipse id="well-plate-2-11" cx="184.2" cy="78.4" rx="3.6" ry="2.8"/><ellipse id="well-plate-3-0" cx="61.0" cy="88.6" rx="3.6" ry="2.8"/><ellipse id="well-plate-3-1" cx="72.2" cy="88.6" rx="3.6" ry="2.8"/><ellipse id="well-plate-3-2" cx="83.4" cy="88.6" rx="3.6" ry="2.8"/><ellipse id="well-plate-3-3" cx="94.6" cy="88.6" rx="3.6" ry="2.8"/><ellipse id="well-plate-3-4" cx="105.8" cy="88.6" rx="3.6" ry="2.8"/><ellipse id="well-plate-3-5" cx="117.0" cy="88.6" rx="3.6" ry="2.8"/><ellipse id="well-plate-3-6" cx="128.2" cy="88.6" rx="3.6" ry="2.8"/><ellipse id="well-plate-3-7" cx="139.4" cy="88.6" rx="3.6" ry="2.8"/><ellipse id="well-plate-3-8" cx="150.6" cy="88.6" rx="3.6" ry="2.8"/><ellipse id="well-plate-3-9" cx="161.8" cy="88.6" rx="3.6" ry="2.8"/><ellipse id="well-plate-3-10" cx="173.0" cy="88.6" rx="3.6" ry="2.8"/><ellipse id="well-plate-3-11" cx="184.2" cy="88.6" rx="3.6" ry="2.8"/><ellipse id="well-plate-4-0" cx="61.0" cy="98.8" rx="3.6" ry="2.8"/><ellipse id="well-plate-4-1" cx="72.2" cy="98.8" rx="3.6" ry="2.8"/><ellipse id="well-plate-4-2" cx="83.4" cy="98.8" rx="3.6" ry="2.8"/><ellipse id="well-plate-4-3" cx="94.6" cy="98.8" rx="3.6" ry="2.8"/><ellipse id="well-plate-4-4" cx="105.8" cy="98.8" rx="3.6" ry="2.8"/><ellipse id="well-plate-4-5" cx="117.0" cy="98.8" rx="3.6" ry="2.8"/><ellipse id="well-plate-4-6" cx="128.2" cy="98.8" rx="3.6" ry="2.8"/><ellipse id="well-plate-4-7" cx="139.4" cy="98.8" rx="3.6" ry="2.8"/><ellipse id="well-plate-4-8" cx="150.6" cy="98.8" rx="3.6" ry="2.8"/><ellipse id="well-plate-4-9" cx="161.8" cy="98.8" rx="3.6" ry="2.8"/><ellipse id="well-plate-4-10" cx="173.0" cy="98.8" rx="3.6" ry="2.8"/><ellipse id="well-plate-4-11" cx="184.2" cy="98.8" rx="3.6" ry="2.8"/><ellipse id="well-plate-5-0" cx="61.0" cy="109.0" rx="3.6" ry="2.8"/><ellipse id="well-plate-5-1" cx="72.2" cy="109.0" rx="3.6" ry="2.8"/><ellipse id="well-plate-5-2" cx="83.4" cy="109.0" rx="3.6" ry="2.8"/><ellipse id="well-plate-5-3" cx="94.6" cy="109.0" rx="3.6" ry="2.8"/><ellipse id="well-plate-5-4" cx="105.8" cy="109.0" rx="3.6" ry="2.8"/><ellipse id="well-plate-5-5" cx="117.0" cy="109.0" rx="3.6" ry="2.8"/><ellipse id="well-plate-5-6" cx="128.2" cy="109.0" rx="3.6" ry="2.8"/><ellipse id="well-plate-5-7" cx="139.4" cy="109.0" rx="3.6" ry="2.8"/><ellipse id="well-plate-5-8" cx="150.6" cy="109.0" rx="3.6" ry="2.8"/><ellipse id="well-plate-5-9" cx="161.8" cy="109.0" rx="3.6" ry="2.8"/><ellipse id="well-plate-5-10" cx="173.0" cy="109.0" rx="3.6" ry="2.8"/><ellipse id="well-plate-5-11" cx="184.2" cy="109.0" rx="3.6" ry="2.8"/><ellipse id="well-plate-6-0" cx="61.0" cy="119.2" rx="3.6" ry="2.8"/><ellipse id="well-plate-6-1" cx="72.2" cy="119.2" rx="3.6" ry="2.8"/><ellipse id="well-plate-6-2" cx="83.4" cy="119.2" rx="3.6" ry="2.8"/><ellipse id="well-plate-6-3" cx="94.6" cy="119.2" rx="3.6" ry="2.8"/><ellipse id="well-plate-6-4" cx="105.8" cy="119.2" rx="3.6" ry="2.8"/><ellipse id="well-plate-6-5" cx="117.0" cy="119.2" rx="3.6" ry="2.8"/><ellipse id="well-plate-6-6" cx="128.2" cy="119.2" rx="3.6" ry="2.8"/><ellipse id="well-plate-6-7" cx="139.4" cy="119.2" rx="3.6" ry="2.8"/><ellipse id="well-plate-6-8" cx="150.6" cy="119.2" rx="3.6" ry="2.8"/><ellipse id="well-plate-6-9" cx="161.8" cy="119.2" rx="3.6" ry="2.8"/><ellipse id="well-plate-6-10" cx="173.0" cy="119.2" rx="3.6" ry="2.8"/><ellipse id="well-plate-6-11" cx="184.2" cy="119.2" rx="3.6" ry="2.8"/><ellipse id="well-plate-7-0" cx="61.0" cy="129.4" rx="3.6" ry="2.8"/><ellipse id="well-plate-7-1" cx="72.2" cy="129.4" rx="3.6" ry="2.8"/><ellipse id="well-plate-7-2" cx="83.4" cy="129.4" rx="3.6" ry="2.8"/><ellipse id="well-plate-7-3" cx="94.6" cy="129.4" rx="3.6" ry="2.8"/><ellipse id="well-plate-7-4" cx="105.8" cy="129.4" rx="3.6" ry="2.8"/><ellipse id="well-plate-7-5" cx="117.0" cy="129.4" rx="3.6" ry="2.8"/><ellipse id="well-plate-7-6" cx="128.2" cy="129.4" rx="3.6" ry="2.8"/><ellipse id="well-plate-7-7" cx="139.4" cy="129.4" rx="3.6" ry="2.8"/><ellipse id="well-plate-7-8" cx="150.6" cy="129.4" rx="3.6" ry="2.8"/><ellipse id="well-plate-7-9" cx="161.8" cy="129.4" rx="3.6" ry="2.8"/><ellipse id="well-plate-7-10" cx="173.0" cy="129.4" rx="3.6" ry="2.8"/><ellipse id="well-plate-7-11" cx="184.2" cy="129.4" rx="3.6" ry="2.8"/></g></svg>
