<svg xmlns="http://www.w3.org/2000/svg" version="1.1" viewBox="0 0 240 180"><title>Scientific Vector Studio editable asset</title><path id="bacteria-envelope" d="M38 90 Q38 48 78 42 H145 Q185 48 185 90 Q185 132 145 138 H78 Q38 132 38 90 Z" fill="#8FD0A8" stroke="#3C8A5B" stroke-width="4"/><path id="bacteria-capsule" d="M47 89 Q47 58 80 53 H144 Q176 58 176 90 Q176 122 144 127 H80 Q47 122 47 89 Z" fill="#C4E6C9" fill-opacity="0.5" stroke="#65A477" stroke-width="2"/><path id="bacteria-nucleoid" d="M76 91 Q91 68 107 91 Q123 113 139 86 Q151 67 163 87" fill="none" stroke="#735A9B" stroke-width="4" stroke-linecap="round"/><g id="bacteria-ribosomes" fill="#E8738B"><circle id="bacteria-ribo-1" cx="70" cy="70" r="4"/><circle id="bacteria-ribo-2" cx="91" cy="113" r="4"/><circle id="bacteria-ribo-3" cx="119" cy="64" r="4"/><circle id="bacteria-ribo-4" cx="150" cy="112" r="4"/><circle id="bacteria-ribo-5" cx="157" cy="64" r="4"/></g><path id="bacteria-flagellum" d="M184 89 Q217 64 221 91 Q225 119 199 127 Q184 132 202 145" fill="none" stroke="#3C8A5B" stroke-width="3" stroke-linecap="round"/><path id="bacteria-pili" d="M55 52 L41 34 M72 43 L64 24 M151 43 L158 23 M172 57 L191 43 M55 128 L42 147" fill="none" stroke="#3C8A5B" stroke-width="2"/></svg>
