<svg xmlns="http://www.w3.org/2000/svg" version="1.1" viewBox="0 0 240 180"><title>Scientific Vector Studio editable asset</title><circle id="virus-envelope" cx="120" cy="90" r="62" fill="#A9C6DF" stroke="#567F9C" stroke-width="4"/><circle id="virus-capsid" cx="120" cy="90" r="37" fill="#D7B4D9" stroke="#916B96" stroke-width="3"/><path id="virus-genome" d="M94 86 Q106 66 119 87 Q132 108 145 86 Q152 76 159 87 M95 102 Q108 119 121 101 Q134 83 147 103" fill="none" stroke="#77558C" stroke-width="4" stroke-linecap="round"/><g id="virus-spikes" stroke="#D66F7C" stroke-width="4" fill="#F09AA3"><line id="virus-spike-line-0" x1="120" y1="20" x2="120" y2="8" transform="rotate(0 120 90)"/><circle id="virus-spike-head-0" cx="120" cy="7" r="5" transform="rotate(0 120 90)"/><line id="virus-spike-line-1" x1="120" y1="20" x2="120" y2="8" transform="rotate(30 120 90)"/><circle id="virus-spike-head-1" cx="120" cy="7" r="5" transform="rotate(30 120 90)"/><line id="virus-spike-line-2" x1="120" y1="20" x2="120" y2="8" transform="rotate(60 120 90)"/><circle id="virus-spike-head-2" cx="120" cy="7" r="5" transform="rotate(60 120 90)"/><line id="virus-spike-line-3" x1="120" y1="20" x2="120" y2="8" transform="rotate(90 120 90)"/><circle id="virus-spike-head-3" cx="120" cy="7" r="5" transform="rotate(90 120 90)"/><line id="virus-spike-line-4" x1="120" y1="20" x2="120" y2="8" transform="rotate(120 120 90)"/><circle id="virus-spike-head-4" cx="120" cy="7" r="5" transform="rotate(120 120 90)"/><line id="virus-spike-line-5" x1="120" y1="20" x2="120" y2="8" transform="rotate(150 120 90)"/><circle id="virus-spike-head-5" cx="120" cy="7" r="5" transform="rotate(150 120 90)"/><line id="virus-spike-line-6" x1="120" y1="20" x2="120" y2="8" transform="rotate(180 120 90)"/><circle id="virus-spike-head-6" cx="120" cy="7" r="5" transform="rotate(180 120 90)"/><line id="virus-spike-line-7" x1="120" y1="20" x2="120" y2="8" transform="rotate(210 120 90)"/><circle id="virus-spike-head-7" cx="120" cy="7" r="5" transform="rotate(210 120 90)"/><line id="virus-spike-line-8" x1="120" y1="20" x2="120" y2="8" transform="rotate(240 120 90)"/><circle id="virus-spike-head-8" cx="120" cy="7" r="5" transform="rotate(240 120 90)"/><line id="virus-spike-line-9" x1="120" y1="20" x2="120" y2="8" transform="rotate(270 120 90)"/><circle id="virus-spike-head-9" cx="120" cy="7" r="5" transform="rotate(270 120 90)"/><line id="virus-spike-line-10" x1="120" y1="20" x2="120" y2="8" transform="rotate(300 120 90)"/><circle id="virus-spike-head-10" cx="120" cy="7" r="5" transform="rotate(300 120 90)"/><line id="virus-spike-line-11" x1="120" y1="20" x2="120" y2="8" transform="rotate(330 120 90)"/><circle id="virus-spike-head-11" cx="120" cy="7" r="5" transform="rotate(330 120 90)"/></g></svg>
