<svg xmlns="http://www.w3.org/2000/svg" version="1.1" viewBox="0 0 240 180"><title>Scientific Vector Studio editable asset</title><path id="mitochondria-outer" d="M28 92 Q32 40 86 35 Q145 20 190 54 Q220 78 205 118 Q188 157 132 148 Q78 160 44 129 Q27 114 28 92 Z" fill="#F09B69" stroke="#B75E35" stroke-width="4"/><path id="mitochondria-inner" d="M43 93 Q48 55 90 51 Q143 37 181 64 Q203 81 191 111 Q177 138 132 132 Q84 143 56 119 Q42 108 43 93 Z" fill="#F7C39F" stroke="#D57B4C" stroke-width="2"/><path id="mitochondria-cristae" d="M57 77 Q74 64 86 79 Q97 94 110 77 Q123 60 135 79 Q147 98 160 78 Q172 61 188 79 M53 105 Q70 91 83 107 Q95 123 108 105 Q121 87 134 106 Q147 124 161 106 Q174 90 190 105" fill="none" stroke="#B85F38" stroke-width="4" stroke-linecap="round"/></svg>
