<svg xmlns="http://www.w3.org/2000/svg" version="1.1" viewBox="0 0 240 180"><title>Scientific Vector Studio editable asset</title><path id="protein-surface" d="M45 99 Q25 69 52 46 Q70 25 96 39 Q119 16 143 37 Q178 29 188 59 Q218 77 194 105 Q200 139 166 143 Q143 166 116 148 Q85 162 70 137 Q39 132 45 99 Z" fill="#9DC2DD" stroke="#557F9D" stroke-width="3"/><path id="protein-active-site" d="M158 52 Q181 46 194 61 Q176 69 185 88 Q167 96 151 84 Q158 69 158 52 Z" fill="#F09A69" stroke="#B75E36" stroke-width="3"/><path id="protein-ribbon" d="M68 92 Q81 58 104 74 Q126 92 139 61 M68 112 Q96 135 116 108 Q134 88 154 115" fill="none" stroke="#6A8EBD" stroke-width="6" stroke-linecap="round"/><g id="protein-domains" fill="#C4D9E9"><circle id="protein-domain-1" cx="82" cy="65" r="11"/><circle id="protein-domain-2" cx="137" cy="124" r="12"/></g></svg>
