<svg xmlns="http://www.w3.org/2000/svg" version="1.1" viewBox="0 0 240 180"><title>Scientific Vector Studio editable asset</title><path id="centrifuge-lid" d="M57 61 Q60 20 94 10 H146 Q180 20 183 61 L169 68 Q120 44 71 68 Z" fill="#B6D8DE" stroke="#34545F" stroke-width="3"/><ellipse id="centrifuge-lid-window" cx="120" cy="43" rx="43" ry="22" fill="#E7F2F4" stroke="#6E9DA7" stroke-width="2"/><rect id="centrifuge-hinge" x="95" y="58" width="50" height="13" rx="5" fill="#526F79" stroke="#34545F" stroke-width="2"/><path id="centrifuge-body" d="M38 76 Q39 63 55 60 H185 Q201 63 202 76 L195 151 Q194 162 182 163 H58 Q46 162 45 151 Z" fill="#E7EFF1" stroke="#34545F" stroke-width="3"/><ellipse id="centrifuge-chamber" cx="120" cy="78" rx="66" ry="31" fill="#7896A0" stroke="#34545F" stroke-width="3"/><ellipse id="centrifuge-rotor" cx="120" cy="78" rx="48" ry="23" fill="#2F4D57" stroke="#1E3942" stroke-width="3"/><circle id="centrifuge-hub" cx="120" cy="78" r="9" fill="#A8C9D0" stroke="#496B75" stroke-width="2"/><g id="centrifuge-wells"><ellipse id="centrifuge-well-1" cx="91" cy="70" rx="7" ry="6" fill="#D5EEF2"/><ellipse id="centrifuge-well-2" cx="111" cy="62" rx="7" ry="6" fill="#D5EEF2"/><ellipse id="centrifuge-well-3" cx="137" cy="64" rx="7" ry="6" fill="#D5EEF2"/><ellipse id="centrifuge-well-4" cx="149" cy="79" rx="7" ry="6" fill="#D5EEF2"/><ellipse id="centrifuge-well-5" cx="133" cy="94" rx="7" ry="6" fill="#D5EEF2"/><ellipse id="centrifuge-well-6" cx="105" cy="93" rx="7" ry="6" fill="#D5EEF2"/><ellipse id="centrifuge-well-7" cx="88" cy="83" rx="7" ry="6" fill="#D5EEF2"/></g><rect id="centrifuge-panel" x="61" y="113" width="118" height="34" rx="8" fill="#C8D8DC" stroke="#607981" stroke-width="2"/><rect id="centrifuge-display" x="73" y="121" width="55" height="18" rx="3" fill="#213E47" stroke="#132C34" stroke-width="2"/><g id="centrifuge-controls"><circle id="centrifuge-start" cx="148" cy="130" r="8" fill="#4BB092" stroke="#2B7763" stroke-width="2"/><circle id="centrifuge-stop" cx="169" cy="130" r="8" fill="#E77F70" stroke="#A94D42" stroke-width="2"/></g></svg>
