<svg xmlns="http://www.w3.org/2000/svg" version="1.1" viewBox="0 0 240 180"><title>Scientific Vector Studio editable asset</title><path id="stomach-esophagus" d="M121 14 Q119 47 133 69" fill="none" stroke="#D78986" stroke-width="17" stroke-linecap="round"/><path id="stomach-body" d="M130 56 Q103 40 86 63 Q72 82 78 107 Q83 128 66 142 Q102 168 145 151 Q188 134 183 96 Q180 70 155 63 Q141 60 130 56 Z" fill="#E7A09B" stroke="#A85D5A" stroke-width="4"/><path id="stomach-duodenum" d="M158 145 Q181 160 197 143" fill="none" stroke="#D78986" stroke-width="14" stroke-linecap="round"/><path id="stomach-folds" d="M99 79 Q126 69 154 82 M94 98 Q127 87 160 101 M91 117 Q123 107 153 119" fill="none" stroke="#C97976" stroke-width="3" stroke-linecap="round"/></svg>
